<?xml version="1.0" standalone="no"?>
<!DOCTYPE svg PUBLIC "-//W3C//DTD SVG 20010904//EN"
 "http://www.w3.org/TR/2001/REC-SVG-20010904/DTD/svg10.dtd">
<svg version="1.0" xmlns="http://www.w3.org/2000/svg"
 width="700.000000pt" height="700.000000pt" viewBox="0 0 700.000000 700.000000"
 preserveAspectRatio="xMidYMid meet">
<metadata>
Created by potrace 1.14, written by Peter Selinger 2001-2017
</metadata>
<g transform="translate(0.000000,700.000000) scale(0.100000,-0.100000)"
fill="#000000" stroke="none">
<path d="M3277 6993 c-1 0 -36 -4 -77 -7 -42 -4 -87 -8 -100 -10 -14 -3 -50
-7 -80 -10 -30 -4 -66 -8 -80 -11 -14 -2 -41 -6 -60 -9 -19 -3 -45 -8 -56 -10
-12 -2 -37 -7 -55 -10 -19 -3 -45 -8 -59 -11 -14 -3 -45 -10 -70 -15 -25 -6
-56 -13 -70 -16 -14 -3 -29 -7 -35 -8 -5 -1 -16 -5 -23 -10 -7 -4 -16 -5 -19
-2 -3 3 -12 1 -20 -5 -7 -6 -13 -8 -13 -5 0 4 -9 2 -19 -4 -13 -6 -18 -18 -16
-32 2 -13 6 -50 9 -83 4 -33 8 -76 10 -95 3 -19 7 -60 10 -90 3 -30 8 -73 11
-95 3 -22 7 -60 10 -85 6 -66 14 -135 26 -224 6 -43 12 -92 14 -110 4 -35 14
-108 20 -146 2 -14 6 -50 10 -80 7 -58 12 -90 20 -142 3 -17 7 -50 9 -72 2
-23 6 -48 9 -56 3 -8 8 -35 11 -60 3 -25 8 -62 11 -84 2 -21 10 -66 16 -100 6
-33 12 -72 14 -86 9 -64 37 -215 42 -224 3 -5 1 -6 -5 -2 -10 6 -61 104 -67
126 -1 3 -15 34 -32 70 -17 36 -34 75 -38 88 -3 12 -11 22 -16 22 -5 0 -9 6
-9 13 0 8 -18 51 -40 96 -22 45 -40 83 -40 85 0 2 -25 57 -56 122 -75 160
-111 236 -149 319 -18 39 -47 102 -65 140 -18 39 -50 107 -71 153 -22 45 -39
84 -39 86 0 2 -26 59 -58 127 -33 68 -67 143 -77 167 -11 23 -22 42 -25 42
-14 0 -220 -116 -335 -189 -102 -64 -343 -238 -380 -275 -7 -6 -33 -28 -59
-50 -50 -42 -55 -54 -29 -77 10 -9 27 -29 38 -44 11 -16 25 -33 30 -39 6 -6
42 -49 80 -96 39 -46 77 -92 85 -101 14 -15 69 -78 156 -179 63 -73 87 -100
123 -138 42 -46 64 -71 175 -197 49 -55 96 -107 105 -115 9 -8 29 -31 45 -50
16 -19 59 -69 96 -110 37 -41 100 -113 140 -160 40 -47 91 -105 112 -130 22
-25 103 -124 180 -220 77 -96 148 -184 157 -195 83 -102 162 -229 185 -295 42
-125 71 -272 80 -400 l3 -45 166 -1 c91 0 164 3 161 7 -2 4 -7 57 -9 116 -2
59 -7 126 -9 148 -3 22 -8 63 -11 90 -3 28 -8 66 -12 85 -8 43 -7 264 1 380 3
47 8 119 11 160 2 41 7 107 10 145 3 39 7 102 10 140 3 39 7 95 9 125 3 30 8
91 11 135 7 101 15 199 20 250 2 22 6 78 10 125 4 47 9 103 11 125 2 22 6 67
9 100 3 33 8 81 10 107 3 25 8 72 10 105 7 86 14 153 19 198 2 22 7 67 11 100
3 33 8 71 10 85 2 14 7 54 10 90 3 36 7 77 10 92 3 15 7 51 10 80 2 29 7 69 9
88 3 19 8 54 11 78 12 98 17 138 21 155 2 10 6 46 9 80 4 34 9 65 11 69 4 6
-133 7 -139 1z"/>
<path d="M3669 6972 c-3 -49 -7 -96 -13 -147 -6 -51 -12 -113 -22 -245 -3 -41
-7 -86 -9 -100 -2 -14 -7 -68 -11 -120 -8 -110 -10 -138 -19 -240 -3 -41 -8
-100 -10 -130 -4 -65 -15 -216 -20 -280 -2 -25 -7 -83 -10 -130 -4 -47 -8
-105 -10 -130 -2 -25 -7 -83 -10 -130 -6 -86 -13 -188 -19 -270 -2 -25 -7 -85
-10 -135 -4 -49 -9 -117 -11 -150 -8 -93 -14 -172 -20 -265 -4 -47 -8 -107
-10 -135 -2 -27 -7 -81 -10 -120 -3 -38 -8 -97 -10 -130 -3 -33 -7 -87 -10
-120 -3 -33 -7 -85 -10 -115 -15 -162 -18 -198 -20 -235 -2 -22 -4 -41 -5 -42
-1 -2 -2 -18 -3 -35 l-1 -33 163 -1 c89 0 164 3 166 7 3 3 7 33 9 65 3 32 8
79 12 104 4 25 8 54 9 65 1 11 3 23 4 26 1 8 200 3 208 -4 3 -4 7 -60 8 -125
1 -65 4 -123 8 -128 3 -6 68 -10 163 -9 l157 0 2 100 c2 55 6 118 9 140 20
114 90 326 141 425 9 16 16 33 16 37 0 5 7 22 14 38 69 149 122 275 117 279
-3 3 0 6 6 6 7 0 12 6 12 14 0 12 17 55 55 141 7 17 32 77 54 135 23 58 46
114 51 125 5 11 20 49 33 85 14 36 43 113 66 171 22 58 41 112 41 120 0 8 5
20 12 27 7 7 8 12 4 12 -5 0 -4 6 1 13 6 6 18 37 28 67 10 30 20 60 24 65 3 6
6 15 8 20 1 6 38 116 82 245 45 129 81 237 81 240 0 3 19 61 41 130 22 69 42
132 45 140 2 8 15 53 30 100 46 147 56 126 -107 204 -227 108 -563 233 -684
253 -16 3 -38 9 -47 14 -10 5 -18 7 -18 5 0 -3 -18 1 -40 9 -22 8 -40 12 -40
10 0 -2 -15 1 -32 6 -18 5 -49 12 -68 15 -19 3 -42 7 -50 9 -8 3 -33 7 -55 10
-22 3 -56 8 -75 11 -19 3 -48 8 -65 10 -16 2 -43 6 -60 8 -16 3 -66 8 -110 11
-44 4 -97 8 -117 10 -35 4 -38 2 -39 -23z m636 -1203 c-4 -6 -8 -23 -10 -37
-1 -15 -6 -45 -9 -67 -4 -22 -11 -65 -16 -95 -5 -30 -12 -73 -16 -95 -3 -22
-8 -43 -10 -46 -1 -3 -6 -30 -9 -59 -4 -30 -8 -57 -10 -60 -2 -3 -6 -24 -9
-46 -4 -22 -8 -51 -11 -64 -3 -14 -9 -50 -15 -80 -6 -30 -12 -65 -14 -76 -2
-12 -7 -37 -10 -55 -3 -19 -10 -59 -17 -89 -6 -30 -12 -66 -13 -80 -2 -14 -6
-34 -9 -45 -3 -11 -9 -38 -12 -60 -3 -23 -8 -52 -10 -65 -15 -68 -26 -128 -31
-160 -3 -19 -7 -46 -10 -60 -2 -14 -7 -40 -10 -59 -3 -18 -8 -43 -10 -55 -6
-28 -13 -74 -18 -111 -9 -65 -17 -111 -21 -123 -4 -10 -25 -12 -90 -9 -48 3
-88 6 -90 9 -2 2 7 48 21 103 13 55 26 109 29 120 2 11 9 38 15 60 6 22 13 51
16 65 5 23 20 81 60 230 9 30 17 66 20 80 3 14 21 81 40 150 20 69 38 135 40
147 2 12 9 34 14 48 5 14 7 25 4 25 -4 0 -1 7 6 15 7 9 10 18 7 22 -4 3 -2 13
3 23 5 9 11 28 14 41 3 13 19 74 36 134 17 61 33 118 35 128 2 10 7 27 10 37
3 10 8 28 10 39 6 25 9 37 31 116 9 33 18 68 19 78 6 28 15 37 36 37 12 0 17
-4 14 -11z"/>
<path d="M5923 6012 c-77 -148 -229 -410 -359 -618 -77 -124 -370 -561 -384
-574 -3 -3 -17 -21 -30 -40 -42 -62 -321 -432 -392 -520 -37 -47 -71 -89 -76
-95 -4 -5 -19 -26 -32 -45 -14 -19 -28 -37 -31 -40 -13 -10 -98 -148 -127
-205 -46 -92 -78 -211 -77 -290 l0 -50 163 0 c90 0 165 2 167 5 2 3 6 24 9 45
13 108 71 217 164 309 54 53 251 196 271 196 5 0 14 7 21 15 7 9 15 13 18 11
3 -3 -19 -27 -49 -53 -199 -178 -257 -277 -263 -451 -2 -37 2 -66 8 -70 19
-12 316 -10 324 2 6 11 9 23 15 61 13 80 96 154 194 172 93 16 250 8 403 -22
41 -8 86 -17 100 -19 14 -3 35 -7 48 -10 12 -4 31 -8 43 -11 11 -2 28 -6 37
-9 9 -3 28 -7 42 -10 14 -2 63 -14 110 -26 47 -12 92 -23 100 -25 199 -46 312
-70 370 -79 19 -3 46 -8 60 -11 13 -2 54 -7 90 -10 36 -3 76 -8 88 -11 l24 -5
-6 143 c-4 79 -8 159 -10 178 -2 19 -7 67 -11 105 -10 110 -16 159 -20 175 -2
8 -7 35 -10 60 -12 91 -44 245 -80 390 -40 154 -34 150 -109 88 -97 -82 -132
-108 -225 -171 -47 -31 -90 -61 -96 -65 -5 -4 -39 -24 -75 -45 -36 -21 -72
-42 -80 -47 -108 -66 -448 -216 -625 -276 -80 -28 -79 -27 40 51 50 33 95 64
102 70 6 5 30 26 54 45 92 75 147 126 222 204 107 112 118 124 162 181 21 28
44 55 49 60 12 11 15 16 123 171 77 109 193 296 193 309 0 5 8 17 17 27 18 20
17 23 -46 128 -11 19 -24 42 -28 50 -28 64 -245 369 -343 484 -51 59 -197 213
-210 221 -4 2 -20 -21 -37 -53z"/>
<path d="M775 5625 c-31 -13 -63 -29 -73 -36 -26 -22 -84 -73 -94 -84 -4 -5
-20 -23 -35 -40 -43 -49 -108 -154 -163 -266 -28 -57 -51 -105 -51 -106 1 -2
-10 -28 -24 -59 -14 -31 -25 -58 -25 -60 0 -1 -5 -15 -12 -31 -6 -15 -12 -32
-13 -38 -2 -5 -13 -35 -25 -65 -12 -30 -22 -57 -22 -60 -1 -7 -3 -15 -24 -80
-10 -30 -19 -63 -21 -73 -2 -10 -14 -57 -27 -105 -22 -79 -38 -151 -41 -177
-1 -9 -6 -35 -20 -105 -8 -37 -13 -69 -20 -125 -4 -27 -8 -62 -10 -76 -5 -36
-17 -146 -20 -189 -2 -19 -6 -99 -10 -177 l-6 -142 23 4 c13 2 52 6 88 9 36 4
77 8 90 11 13 3 40 7 60 10 30 5 82 16 290 61 14 3 86 20 160 39 74 19 146 36
160 39 14 3 36 8 50 11 31 8 69 16 95 20 11 1 27 5 35 8 8 3 31 8 50 11 19 3
46 8 60 11 119 25 305 26 385 2 98 -30 158 -99 167 -192 l4 -40 172 0 c197 0
186 -7 156 96 -46 156 -143 242 -386 340 -32 12 -58 26 -58 29 0 10 84 36 135
41 36 4 114 -20 135 -41 3 -3 24 -18 48 -33 161 -104 246 -227 268 -382 3 -22
8 -42 10 -45 3 -2 79 -5 169 -5 l164 -1 -4 41 c-12 151 -61 283 -163 439 -124
188 -286 284 -429 255 -29 -6 -47 4 -24 13 4 2 19 21 33 43 49 79 23 215 -70
359 -27 42 -182 257 -192 266 -3 3 -17 23 -32 45 -15 22 -38 52 -50 67 -13 14
-30 36 -38 48 -8 12 -24 32 -35 44 -11 12 -31 37 -45 56 -56 74 -187 211 -270
281 -162 138 -341 188 -475 134z m292 -1044 c126 -70 307 -210 332 -258 18
-34 5 -75 -30 -103 -18 -14 -46 -37 -63 -52 -17 -16 -35 -28 -42 -28 -18 0
-132 49 -246 106 -59 30 -111 54 -115 55 -5 0 -13 5 -19 10 -6 5 -33 21 -60
35 -27 14 -53 29 -58 34 -8 8 87 156 123 191 49 47 104 51 178 10z"/>
<path d="M5070 3388 c-161 -28 -245 -144 -186 -256 55 -104 223 -197 416 -228
14 -2 34 -6 46 -9 99 -22 414 -21 517 1 50 11 197 11 254 -1 253 -52 327 -139
232 -273 -12 -17 -30 -24 -68 -29 -48 -5 -60 -2 -137 37 -46 23 -84 46 -84 51
0 5 -5 9 -10 9 -6 0 -28 11 -49 24 -21 13 -72 43 -115 66 l-76 42 -119 -79
c-65 -43 -148 -96 -184 -118 l-66 -40 262 -265 c275 -278 367 -356 495 -420
196 -98 321 -84 442 47 116 128 219 398 247 655 15 137 7 334 -18 433 -35 140
-83 216 -160 256 -32 16 -50 21 -119 34 -8 1 -25 -2 -38 -6 -14 -6 -21 -5 -17
0 9 15 -382 -102 -435 -130 -22 -12 -206 -64 -250 -71 -3 -1 -21 -5 -40 -9
-102 -24 -336 -32 -479 -16 -65 7 -143 35 -156 57 -12 19 12 34 53 33 40 -2
68 -12 121 -44 36 -21 48 -21 181 6 14 2 41 7 60 11 19 3 53 9 75 13 l40 7
-35 8 c-41 8 -58 15 -123 47 -82 40 -97 50 -97 60 0 5 -5 9 -11 9 -6 0 -24 9
-40 21 -77 54 -228 85 -329 67z"/>
<path d="M1533 3382 c-27 -3 -32 -7 -31 -30 1 -53 -14 -91 -49 -122 -70 -62
-111 -70 -403 -75 -113 -2 -227 -6 -255 -9 -89 -10 -215 -30 -222 -36 -3 -3
-7 -4 -56 -13 -42 -9 -227 -81 -269 -106 -15 -9 -57 -34 -93 -56 l-67 -39 7
-46 c5 -35 37 -198 60 -310 20 -95 112 -400 140 -465 7 -16 26 -63 41 -103
l27 -73 51 50 c103 100 153 146 251 230 55 47 102 88 105 92 3 3 23 18 45 35
22 16 45 34 51 39 6 6 23 19 38 30 16 11 43 31 61 45 18 14 43 32 55 40 13 8
35 24 49 36 33 26 378 254 385 254 3 0 32 16 63 36 l58 36 -55 -49 c-140 -123
-342 -333 -479 -497 -9 -10 -21 -23 -27 -30 -5 -6 -47 -60 -92 -121 -46 -60
-90 -119 -98 -130 -8 -11 -23 -32 -32 -47 -9 -16 -20 -28 -24 -28 -4 0 -8 -5
-8 -10 0 -6 -15 -32 -33 -58 -59 -83 -177 -282 -177 -296 0 -8 3 -16 8 -18 4
-2 27 -34 52 -73 49 -76 207 -278 286 -364 74 -82 215 -221 224 -221 8 0 18
17 71 120 13 25 26 47 29 50 3 3 39 64 79 135 92 161 280 468 396 646 117 179
287 433 294 439 3 3 28 39 56 80 27 41 63 94 80 116 16 23 37 53 47 65 9 13
54 76 100 139 46 63 95 131 108 150 14 19 28 37 31 40 3 3 14 20 24 38 11 17
23 32 27 32 4 0 8 6 8 14 0 8 7 21 15 30 22 21 110 201 129 261 9 28 20 71 25
98 l8 47 -142 0 -142 0 -7 -52 c-10 -73 -71 -198 -144 -293 -61 -80 -185 -206
-296 -300 -32 -28 -87 -77 -123 -110 -76 -70 -111 -93 -67 -44 17 19 53 59 80
89 27 30 58 64 69 75 43 43 182 212 205 250 13 22 27 42 30 45 10 8 66 131 75
165 14 53 15 59 21 114 3 30 1 57 -5 60 -5 3 -65 5 -134 3 l-125 -3 -6 -40
c-4 -23 -16 -59 -27 -80 -20 -40 -122 -149 -139 -149 -5 0 -15 -6 -22 -12 -18
-18 -119 -65 -208 -98 -64 -24 -284 -89 -315 -94 -5 -1 -16 -5 -24 -10 -9 -6
-12 -5 -9 4 3 10 44 29 93 44 35 10 171 69 230 99 105 53 173 112 221 194 24
40 30 58 41 115 5 25 4 26 -52 30 -31 1 -59 0 -62 -5 -2 -4 -9 -5 -14 -1 -12
7 -71 10 -116 6z m-356 -488 c-3 -3 -12 -4 -19 -1 -8 3 -5 6 6 6 11 1 17 -2
13 -5z"/>
<path d="M4191 3380 c-17 -4 -19 -12 -16 -70 4 -79 10 -119 41 -235 24 -95 94
-297 115 -337 7 -13 11 -23 10 -23 -1 0 3 -13 9 -30 7 -16 32 -84 57 -150 25
-66 54 -142 65 -170 11 -27 23 -61 28 -75 4 -14 31 -88 60 -165 158 -428 391
-1119 556 -1650 16 -49 29 -91 30 -93 3 -6 120 56 221 117 266 160 440 296
658 515 115 115 153 156 245 265 23 28 26 58 7 80 -7 9 -35 52 -62 96 -73 120
-247 380 -256 383 -5 2 -9 8 -9 13 0 5 -18 32 -40 60 -22 28 -44 58 -49 67 -8
14 -13 13 -43 -11 -86 -69 -260 -197 -328 -241 -41 -27 -87 -57 -101 -66 -20
-14 -29 -16 -38 -7 -6 6 -11 14 -11 17 0 4 -30 60 -66 126 -36 65 -80 144 -96
174 -51 93 -296 512 -333 570 -25 38 -174 280 -190 308 -6 9 -29 49 -51 87
-92 156 -150 322 -145 418 1 16 -4 27 -11 27 -137 4 -241 4 -257 0z"/>
<path d="M2794 3372 c8 -14 -31 -172 -65 -262 -33 -87 -133 -287 -194 -388
-11 -19 -181 -327 -225 -407 -177 -327 -226 -422 -426 -825 -185 -373 -209
-422 -279 -575 -121 -262 -135 -293 -135 -304 0 -5 17 -20 38 -32 20 -13 39
-27 40 -31 2 -4 8 -8 13 -8 5 0 57 -28 115 -61 131 -76 362 -188 394 -191 21
-3 26 5 47 72 13 41 26 82 28 90 2 8 4 15 5 15 1 0 3 11 6 25 2 14 7 32 11 40
3 8 7 18 8 23 2 4 3 8 5 10 1 1 3 9 5 18 1 8 15 56 31 105 15 49 29 94 31 99
14 55 145 478 149 483 2 2 18 -1 36 -7 18 -6 35 -10 38 -9 3 1 14 -4 26 -10
11 -6 32 -13 45 -16 13 -3 63 -15 111 -27 69 -17 86 -25 83 -39 -2 -9 -6 -41
-9 -71 -8 -67 -14 -112 -21 -164 -11 -68 -13 -88 -20 -155 -4 -36 -8 -67 -10
-70 -1 -3 -6 -36 -10 -73 -3 -37 -8 -78 -10 -89 -3 -12 -7 -46 -10 -77 -3 -31
-7 -67 -10 -81 -5 -28 -14 -102 -21 -170 -3 -25 -7 -57 -9 -72 -5 -27 9 -37
60 -43 11 -2 38 -7 60 -13 22 -6 62 -13 89 -17 27 -3 52 -8 55 -9 3 -2 33 -7
66 -11 96 -12 108 -13 150 -19 22 -3 72 -8 110 -12 39 -3 75 -6 80 -7 7 -1 10
166 11 483 1 267 5 850 8 1295 10 1154 9 1365 -7 1565 l-2 25 -248 3 c-137 1
-246 -1 -243 -6z m230 -274 c-7 -84 -14 -163 -19 -198 -3 -19 -7 -55 -10 -80
-13 -109 -17 -136 -20 -150 -2 -8 -7 -37 -10 -65 -4 -27 -8 -57 -10 -65 -5
-16 -33 -167 -40 -215 -3 -16 -7 -41 -10 -55 -11 -58 -14 -77 -19 -110 -3 -19
-7 -44 -9 -55 -3 -11 -10 -50 -17 -87 -11 -61 -14 -67 -34 -63 -11 3 -57 12
-101 21 -44 9 -81 17 -83 18 -2 3 15 61 28 91 5 11 23 63 41 115 17 52 34 100
37 105 4 6 7 15 8 20 2 6 30 89 64 185 34 96 68 195 75 220 7 25 23 76 35 114
12 38 23 76 25 85 3 9 12 43 21 76 9 33 17 65 19 70 17 75 34 88 29 23z"/>
<path d="M3509 3363 c0 -10 0 -326 0 -703 0 -377 1 -1130 1 -1673 l0 -988 127
6 c70 3 145 7 168 10 22 3 65 7 95 10 30 3 64 7 76 9 12 2 45 7 74 11 29 4 62
9 74 11 12 2 37 7 56 10 19 3 67 12 105 21 39 8 81 17 95 19 120 24 520 152
568 183 14 9 14 9 -65 295 -14 48 -27 96 -28 105 -2 9 -4 16 -5 16 -1 0 -3 7
-5 15 -5 18 -36 131 -63 225 -11 39 -30 104 -41 145 -23 80 -23 79 -44 155 -8
28 -19 60 -23 72 l-9 21 -67 -23 c-38 -13 -68 -21 -68 -18 0 3 -6 1 -12 -4
-12 -10 -201 -63 -243 -69 -11 -1 -20 -3 -20 -4 0 -4 -112 -23 -144 -24 -18
-1 -24 5 -26 25 -2 15 -6 43 -9 63 -3 20 -9 53 -12 74 -6 38 -80 476 -89 522
-12 68 -65 377 -80 465 -9 55 -18 112 -20 126 -5 27 -10 62 -20 144 -3 28 -9
68 -12 90 -8 58 -13 103 -18 160 -2 28 -6 70 -9 95 -6 57 -18 231 -17 248 1
16 1 24 -2 102 l-2 65 -143 3 c-130 2 -142 1 -143 -15z"/>
</g>
</svg>
