<svg xmlns="http://www.w3.org/2000/svg" viewBox="0 0 1436 1436"><g id="Layer_2" data-name="Layer 2"><g id="logo"><g id="logo-2" data-name="logo"><path d="M718,0C321.5,0,0,321.5,0,718s321.5,718,718,718,718-321.5,718-718S1114.5,0,718,0ZM859.3,478.9c9.4-2.1,18.4,2.2,24.4,12.2,2.4,4.2,4.2,8.8,6.2,13.2,11.1,24.3,22,48.6,33.1,72.9,9.9,21.8,23.8,40.7,42.8,55.3a99.4,99.4,0,0,0,20.6,12.1c8.2,3.7,11.7,2,12.4-6.8,1.2-17.1,2.6-34.5,1.3-51.5-3.8-48.9-15.1-96.2-32.5-142-2.5-6.5-5.7-11.8-12.3-15.8-3.9-2.4-7.3-9.7-6.7-14.2s5.4-11.1,10-13.3c15.3-7.6,34.9.6,42.8,18.4a307.5,307.5,0,0,1,16.3,46.1c10.3,39.1,18.7,78.8,16.1,119.7a333,333,0,0,1-7.7,54.4c-6.8,28.9-27,38.7-54.9,28.3-20.3-7.5-36-21.5-50.1-37-12.3-13.5-22.7-28.7-35-44.5,2.4,22.3,4.5,43.7,6.9,65.1,1.1,9.9-2.7,17.4-10.8,19.9s-16.8-1.3-20.7-10.8c-9.6-23-14-47.3-15.5-72-1.8-29.2-3.2-58.4-3.8-87.7C841.9,489.3,849.3,481.2,859.3,478.9ZM683.7,496c2.3-18.1,8.4-35.7,13.6-53.2,1.8-5.9,5.4-11.5,9.4-16.3,12.4-14.6,31.7-13.3,40.8,3.5,6,11.2,10.3,23.7,13.6,36,8.8,32.7,16.5,65.6,24.7,98.4.7,3,1.5,6.1,2.3,9.4l4.5-.6c8.5-1.3,15.1,2.1,17.3,9s-.4,14.2-8.5,17.6c-6.1,2.5-6.1,5.6-5,11.2q8.1,38.3,15.1,76.7c2.2,11.7-3,19.5-12.6,20.4-7.9.7-13.6-3-16.3-12.3-6.8-23.3-13.1-46.9-19.7-70.3-.5-1.9-1.1-3.8-2.1-7.5-15.1,8.9-29.6,17.3-43.9,26.1a9.6,9.6,0,0,0-3.7,7c-.2,11.2-.3,22.4.6,33.5s-2.1,17.2-9.7,19.8-16.3-.6-19.9-9.3-6.4-18-7-27.2C672.9,610.4,676.4,553,683.7,496ZM315,530.3c7.6-5.5,15.5-5.1,23.2.2a2.6,2.6,0,0,0,1.5.5c3.3-16.4,5.6-33,10-48.9,5.7-20.3,17-37.7,33.9-50.7s33.4-16.5,52.6-14.7c15,1.4,24,11.5,29.9,24.4,7.3,15.8,7,32.9,7.3,49.8.8,53.2-18,100.5-43.3,145.9-7.7,13.8-15.2,27.6-23.7,43.1,22.7,1.5,44.1,3.1,65.4,4.3,14.1.9,28.2.7,42.1,2.3,5.9.7,11.9,4,17.2,7.1s8.7,9.9,7.1,17.1-6.3,10.9-12.9,12.3c-31.8,6.9-63.9,11.3-96.5,9.4l-31.4-2.1c-.7,5.5-.8,9.2-1.7,12.8-3,11.4-12.1,19.4-23,20.3s-22.6-3.8-27.2-15.3c-3.9-9.7-6.2-20.2-8.1-30.6-8.9-50.5-17.5-101-26.3-151.6a113.9,113.9,0,0,0-2.8-12.6C305.7,544.2,306.9,536.1,315,530.3Zm267.1,485.4c-4.8,19.8-18.3,28.7-37.7,23.3-45.1-31.2-83.9-72.3-114.6-126.2L388,1064.1a55,55,0,0,1-4.4,17.4c-6.8,15-23.5,18.7-34.5,6.5-7.4-8.3-14-18.6-17.3-29.2-8.8-27.6-16.7-55.5-22.8-83.7-8-37-14.1-74.3-20.7-111.6-1.1-5.9-1.1-12-1.2-18-.3-8.6,4-14.4,11.3-16.1s25.5,2.2,28,10.4c39.4,48.9,35.2,143.7,35.2,143.7l45.3-119.3c6.6-14,20.2-15.9,31.1-4.9,49,21.4,98.6,119.9,98.6,119.9-6.4-25.3-3.5-50.4-10.1-75.6-5.9-22.3-9.8-44.9-7.1-68.1,1.4-13.1,11.6-21.3,23.1-17.8,5.5,1.6,11.5,6.3,14.1,11.2,5.9,11.1,10.3,23.1,14.2,35,2.8,8.5-.9,13.5-12.6,19.8,6.1,22.6,12.3,45.5,18.4,68.4C582.1,973,587.3,993.8,582.1,1015.7Zm2.8-392.5c-18.1-3.9-30.1-16.1-39.5-31-24.6-38.9-39.8-81.2-43-127.4a93,93,0,0,1,1-19.7c1.1-7.1,5-12.6,12.6-13.4s12.8,4,14.6,10.8,2.7,16.7,3.9,25.1c.3,2-.1,4.1.4,6,9.3,34.1,21.5,67.1,41.4,96.8a83.3,83.3,0,0,0,7,8.7c1,1.3,2.5,2.2,5.4,4.6,2.6-11,5.8-20.7,7.1-30.6,4.4-32.5,7.9-65,12.2-97.5,2.6-20.5,5.8-40.9,9.2-61.3.7-4.3,2.6-9.4,5.7-12.2s9.1-6.2,13.1-5.4,9.4,5.9,10.1,9.9c1.7,10.1,4.6,20.9-3.1,30.6-1.7,2.1-1.5,6-1.8,9.1-4.2,44.3-8.2,88.7-12.6,133-1.3,12.5-5.4,24.9-5.5,37.4a436.1,436.1,0,0,0,3.5,58.2c2.2,17,6.5,33.7,10.1,50.5,2.2,10.5.2,17.1-7.1,20.9s-15.3,1.7-21.8-6.5c-12.6-16-16.4-35.1-18.9-54.6C587.1,651.6,586.3,637.9,584.9,623.2Zm603.3,304.7c-.8,22.2-12.5,37.8-30.8,48.7-28.5,17.1-59.9,22.7-92.6,20.4-16.9-1.1-28-11.6-33.3-27.2-3.4-9.9-4.8-20.5-7.1-30.9-.5-2.2-.7-4.4-1.3-8.3-5.3,8.3-9.5,15.6-14.3,22.3a198.4,198.4,0,0,1-15.7,19.4,120.2,120.2,0,0,1-36.4,26.1,31.7,31.7,0,0,1-43.2-19L903,947.6c-11.1,12.1-22.3,23.9-33.2,36s-19,22.3-28.8,33.2a99.8,99.8,0,0,1-12.6,11.7c-19.3,14.6-38.7,10.5-50.6-10.5l-4.6-7.9c-1,15.3-6.4,25.7-21.1,28a29,29,0,0,1-25.9-9.1,312.4,312.4,0,0,1-27.5-36.1c-5.6-8.5-9.5-18.3-15-29.3-4.7,4.4-9.8,6.5-12.7,11.8-4.4,8-10,9.6-17.3,8.3-7.3-2.9-8.1-5.8-5.5-14.5,3.6-11.8,11.8-20,20.9-27.8,2-1.7,4.2-5.3,3.6-7.3-6.6-24.3-13.8-48.4-21.4-74.4-.3,3.2-.6,5-.7,6.7-3.2,45-6.4,90-9.2,135.1,2.5,14.1-3.3,25-16.3,33.2-12.1,2.1-12.9-3.2-18.4-13.8s-8.6-20.5-8.7-30.8a1147.1,1147.1,0,0,1,12-181.4c1.7-11.7,7.3-23.7,14.1-33.6,12.5-18.6,33.7-16.6,42.6,3.8,6.7,15.4,11.2,31.9,15.7,48.2,13.8,50,26.6,100.3,50.8,146.8,4.5,8.6,9.5,16.9,12.8,22.9l23.5,1.5c-.1-.9-.3-2.9-.7-4.9-8.8-38.6-18.2-77-26.3-115.7-4.4-21.1-11.4-60-11.5-82.1-.1-6.8,3.2-13,6.8-18.7a14.9,14.9,0,0,1,19.6-5.7c6.7,3.3,14.7,11.4,11.7,19.3-6.1,16.6,4.8,51.8,9.6,68.4,9.9,34.1,20.4,68,30.6,102.1,2,6.8,3.6,13.8,5.5,20.8l74.7-59.2c4.4-3.4,5.4-7,4.3-12.7-6.8-34-14.2-68.4-9.9-102.4,1.3-10.9,2.6-21.7,4.5-32.5,1.5-9,7.2-13.7,14.3-12.9s11.6,6.7,11.6,15.7c0,19.6-.3,39.2.7,59,.2,30.8,11,61.4,21.9,90.7,2.1,5.6,4.6,11.2,8.2,15.9,7.3,9.9,17.8,11,26.5,2.4,17.3-17,32.2-36.2,42.1-58.3,3.9-10.7,27.2-2.1,23.3,8.5l-4.8,13.7c6.1.7,13.4-.3,18.2,2.6s8.1,29.5,10.9,35.3c0,0,18.1,8,64.3-14.6,9-4.3,17.1-9.9,18.2-19.8,2.2-19.3-9.6-38.3-18.8-55.3-17.6-32.7-37.3-34.9-58.6-73.9-6.6-12-13.5-24.2-17.7-37.1-2.8-8.5-2.5-18.7-1.3-27.8s9.5-14.6,18.6-14.3c4.1.2,8.2.3,12.4.3,16.3-.2,27.9,3.8,34.7,7s9.8,10.8,7,17.5c-1.5,3.7-4.9,7.1-11.7,8.3-18.1,3.3-17.5,13.4-17.5,13.4l25.9,43.3c5.3,10.8,20.7,22,27,32.1,22.5,20.5,19.4,22.4,32.7,41C1186.5,886.3,1188.9,906.9,1188.2,927.9Z"/><path d="M729.7,484.3h-2L716.8,603.7l36.9-18.2Q741.7,534.7,729.7,484.3Z"/><path d="M425.6,460.4c-5.9,3.5-12.6,5.4-15.9,9.9-5.9,7.8-11.7,16.7-14.2,26-9.6,35.5-8.1,72-9.1,109.3C413.2,574.9,432.7,503.5,425.6,460.4Z"/></g></g></g></svg>