<?xml version="1.0" encoding="UTF-8"?><svg xmlns="http://www.w3.org/2000/svg" width="55.47998" height="49.92999" viewBox="0 0 55.47998 49.92999"><defs><style>.d{fill:#fff;}</style></defs><g id="a"/><g id="b"><g id="c"><path class="d" d="M18.75995,23.16998c-.33997,1.40002-1.25995,3.29004-2.31,5.04004-.13,.25-.27997,.5-.44,.73999-.06995,.10999-.19995,.16998-.32996,.16998H3.64996c-.33002,0-.51996-.34998-.34998-.60999l.19-.29999L15.19995,9.89001c.17004-.26001,.58002-.23004,.70001,.04999,1.96002,4.39001,3.65002,9.84003,2.85999,13.22998Z"/><path class="d" d="M55.47998,31.90997v2.90002c0,.16998-.09998,.32001-.25,.38-.91003,.39001-4.01001,1.82001-5.29999,3.60999-3.29004,4.58002-5.79999,11.13-11.42999,11.13H15.04999c-8.32001,0-15.04999-6.76001-15.04999-15.09998v-.27002c0-.21997,.17999-.40002,.40997-.40002H13.46997c.26001,0,.45001,.24005,.44,.5-.09998,.85004,.06,1.72003,.46002,2.51001,.77997,1.57001,2.38995,2.56,4.13,2.56h6.46997v-5.04999h-6.40002c-.32996,0-.52997-.38-.33997-.64996,.08002-.11005,.15002-.22003,.23999-.34003,.59998-.87,1.46002-2.20001,2.33002-3.72003,.58002-1.02997,1.14996-2.12,1.60999-3.21997,.09003-.20001,.15997-.40997,.23999-.59998,.13-.36005,.26001-.69,.35004-1.01001,.08997-.28003,.16998-.57001,.23999-.84003,.20996-.94,.29999-1.92999,.29999-2.95001,0-.40997-.01001-.82996-.04999-1.22998-.02002-.44-.07001-.88-.13-1.32001-.03003-.39001-.10004-.76996-.17999-1.16998-.09003-.58002-.22003-1.16998-.36005-1.75l-.06-.22998c-.10999-.40002-.20996-.78003-.32996-1.19-.37-1.26001-.79004-2.49005-1.23004-3.64001-.16998-.46002-.34998-.90002-.53998-1.33002-.27002-.66998-.54999-1.27002-.79999-1.83997-.13-.26001-.23999-.49005-.35004-.74005-.12-.26996-.25-.53998-.37994-.79999-.09003-.20001-.20001-.39001-.27002-.57001l-.79999-1.44995c-.11005-.20001,.07001-.44,.28998-.38l4.95001,1.33997h.03998l.64001,.19,.71997,.20001,.27002,.07001V2.57001c0-1.41998,1.13-2.57001,2.53998-2.57001,.71002,0,1.34003,.28998,1.79004,.76001,.45996,.45996,.75,1.09998,.75,1.81V6.94l.52997,.14001c.04004,.01996,.08002,.03998,.12,.07001,.12,.08997,.31,.22998,.55005,.40997,.19,.14001,.38,.32001,.62,.51001,.47998,.39001,1.04999,.88,1.66998,1.45001,.15997,.14996,.33002,.28998,.47998,.44,.79999,.75,1.70001,1.62,2.57001,2.59998,.23999,.27002,.47003,.53998,.72003,.84003,.22998,.29999,.48999,.58997,.70996,.87,.29004,.38995,.60004,.79999,.88,1.21997,.12,.20001,.28003,.40002,.39001,.60004,.35999,.52997,.66998,1.07996,.96997,1.62994,.12006,.25,.25,.53003,.36005,.80005,.32996,.73999,.58997,1.48999,.75,2.23999,.06,.15997,.08997,.33997,.10999,.5v.02997c.06,.22003,.07001,.45001,.08997,.70001,.07001,.76001,.04004,1.54004-.12,2.31-.07996,.32001-.16998,.63-.26996,.96002-.12,.32001-.23004,.64001-.37,.95996-.28003,.64001-.61005,1.28003-.99005,1.88-.12994,.22003-.27997,.46002-.42999,.68005-.15997,.23999-.32996,.45996-.46997,.67999-.21002,.27997-.42999,.56-.65002,.82001-.20001,.27997-.39996,.54999-.62,.78998-.31,.37-.60999,.71002-.91998,1.03998-.17999,.22003-.38,.44-.59003,.64001-.19,.22998-.39996,.41998-.57996,.59998-.32001,.32001-.57001,.55005-.78003,.76001l-.52002,.46002c-.06995,.07001-.16998,.10999-.26996,.10999h-3.94v5.04999h4.95996c1.11005,0,2.16003-.38995,3.01001-1.12,.29004-.25,1.56-1.34998,3.07001-3.01001,.04999-.06,.10999-.08997,.17999-.10999l13.69-3.95996c.26001-.07001,.52002,.10999,.52002,.37994Z"/></g></g></svg>